# xmcd
#
# Track frame offsets:
#	150
#	19227
#	36611
#	52079
#	69224
#	82216
#	97424
#	113141
#	124199
#	141656
#	155747
#	170457
#	185871
#	199954
#	214462
#	225769
#	241856
#	256116
#	261902
#
# Disc length: 3984 seconds
#
# Revision: 2
# Processed by: cddbd v1.5.2PL0 Copyright (c) Steve Scherf et al.
# Submitted via: audiograbber 1.83.01
#
DISCID=2a0f8e13
DTITLE=Various Artist - CDX 041
DYEAR=1992
DGENRE=Country
TTITLE0=Pirates Of The Mississippi - A Street Man Named Desire
TTITLE1=Evangeline - Am I A Fool
TTITLE2=The Bellamy Brothers - Can I Come Home To You
TTITLE3=Vince Gill - Don't Let Our Love Start Slippin' Away
TTITLE4=George Jones - I Don't Need Your Rockin' Chair
TTITLE5=Judy Fields - I Got On This Train To Ride
TTITLE6=Dixiana - I Know Where There Is One
TTITLE7=Joy White - Little Tears
TTITLE8=Brooks and Dunn - Lost And Found
TTITLE9=Lee Roy Parnell - Love Without Mercy
TTITLE10=Michael White - She Likes To Dance
TTITLE11=Susie Luchsinger - So It Goes
TTITLE12=Peggy Butcher - Sweet New Love
TTITLE13=Tim Mensy - That's Good
TTITLE14=Ronna Reeves - We Can Hold Our Own
TTITLE15=Billy Ray Cyrus - Where'm I Gonna' Live
TTITLE16=Mid South - You Were At The End Of Every Road
TTITLE17=Travis Tritt - Register To Vote PSA
TTITLE18=The Chipmunks - Alvin and The Chipmunks Liners
EXTD=
EXTT0=
EXTT1=
EXTT2=
EXTT3=
EXTT4=
EXTT5=
EXTT6=
EXTT7=
EXTT8=
EXTT9=
EXTT10=
EXTT11=
EXTT12=
EXTT13=
EXTT14=
EXTT15=
EXTT16=
EXTT17=
EXTT18=
PLAYORDER=
